first trial
nRows=19
nColumns=38

# SIMM Motion File Header:
name Sujet_05_velo_60.mvnx
datacolumns 38
datarows 19
otherdata 1
range 12.0660 12.3670
endheader
time pelvis_tilt  pelvis_list  pelvis_rotation  pelvis_tx  pelvis_ty  pelvis_tz  hip_flexion_r  hip_adduction_r  hip_rotation_r  knee_angle_r  ankle_angle_r  subtalar_angle_r  mtp_angle_r  hip_flexion_l  hip_adduction_l  hip_rotation_l  knee_angle_l  ankle_angle_l  subtalar_angle_l  mtp_angle_l  lumbar_extension  lumbar_bending  lumbar_rotation  arm_flex_r  arm_add_r  arm_rot_r  elbow_flex_r  pro_sup_r  wrist_flex_r  wrist_dev_r  arm_flex_l  arm_add_l  arm_rot_l  elbow_flex_l  pro_sup_l  wrist_flex_l  wrist_dev_l
12.0660	-4.8057	4.8109	-82.9682	0.0000	1.2500	-0.0000	34.8345	-2.7563	-5.5076	38.3476	-25.9152	3.3743	0.0000	79.2807	10.2210	-8.4445	96.8496	-6.4411	7.1442	0.0000	-23.5142	-1.3578	-2.8864	87.5122	-10.8283	20.1508	4.8822	61.8769	-57.3296	-36.3332	98.9202	-9.7427	25.7366	-1.7904	63.3714	-40.5324	-21.6301	
12.0830	-4.8177	4.6970	-82.9932	0.0000	1.2500	-0.0000	35.7162	-2.4238	-5.8810	41.5160	-26.1765	3.2331	-0.0000	79.3231	10.2261	-8.6568	94.7022	-5.7302	7.0235	-0.0000	-23.5316	-1.2368	-2.8855	87.5169	-10.8485	20.1993	4.8718	61.8801	-57.3388	-36.2563	98.9764	-9.7419	25.7886	-1.8072	63.2649	-40.6628	-21.6782	
12.1000	-4.8181	4.4929	-83.0630	0.0000	1.2500	-0.0000	36.7310	-2.0852	-6.0996	44.8875	-26.2214	3.0853	0.0000	79.0105	10.1547	-8.8708	92.3128	-5.1092	6.9884	-0.0000	-23.5461	-1.0728	-2.8574	87.5635	-10.8641	20.2550	4.8555	61.9454	-57.3401	-36.1653	99.0126	-9.7361	25.8484	-1.8181	63.1175	-40.8059	-21.7262	
12.1170	-4.8006	4.1709	-83.1749	0.0000	1.2500	-0.0000	37.8083	-1.7659	-6.0935	48.4059	-25.9163	2.9179	-0.0000	78.3355	10.0068	-9.0990	89.6995	-4.6186	7.0637	-0.0000	-23.5559	-0.8506	-2.7977	87.6593	-10.8822	20.3106	4.8379	62.0928	-57.3257	-36.0551	99.0114	-9.7118	25.9307	-1.8183	62.9087	-40.9575	-21.7648	
12.1330	-4.7706	3.7589	-83.3318	0.0000	1.2500	-0.0000	39.0176	-1.4332	-5.9419	52.1173	-25.3924	2.7329	0.0000	77.3081	9.7798	-9.3372	86.8368	-4.2198	7.2292	0.0000	-23.5639	-0.5852	-2.7110	87.7971	-10.8947	20.3736	4.8150	62.3026	-57.3034	-35.9308	98.9903	-9.6824	26.0210	-1.8130	62.6590	-41.1217	-21.8032	
12.1500	-4.7437	3.3218	-83.5517	0.0000	1.2500	-0.0000	40.3680	-1.0935	-5.7376	55.8670	-24.8685	2.4954	-0.0000	75.9695	9.4797	-9.5566	83.7620	-3.8981	7.4970	0.0000	-23.5714	-0.3150	-2.6033	87.9744	-10.8950	20.4777	4.7875	62.5296	-57.2822	-35.8128	98.9717	-9.6635	26.0404	-1.8164	62.4391	-41.2886	-21.8493	
12.1670	-4.7225	2.8693	-83.8484	0.0000	1.2500	-0.0000	41.8807	-0.7406	-5.4695	59.6431	-24.4783	2.1597	-0.0000	74.3070	9.0990	-9.7460	80.4729	-3.5760	7.9070	0.0000	-23.5820	-0.0482	-2.4742	88.2110	-10.8809	20.6470	4.7603	62.7604	-57.2630	-35.7053	98.9744	-9.6544	25.9390	-1.8389	62.2974	-41.4587	-21.9018	
12.1830	-4.7027	2.3917	-84.2086	0.0000	1.2500	-0.0000	43.5350	-0.3724	-5.1601	63.4529	-24.0903	1.7720	0.0000	72.3381	8.6421	-9.9402	76.9654	-3.3300	8.4166	-0.0000	-23.5931	0.2234	-2.3239	88.4865	-10.8527	20.8572	4.7281	63.0082	-57.2448	-35.6041	98.9795	-9.6556	25.7667	-1.8705	62.1853	-41.6315	-21.9623	
12.2000	-4.6917	1.9230	-84.6092	0.0000	1.2500	-0.0000	45.2761	-0.0084	-4.9483	67.1827	-23.5281	1.4355	0.0000	70.1477	8.1372	-10.1783	73.2766	-3.3756	8.9087	0.0000	-23.5962	0.4870	-2.1595	88.7378	-10.8077	21.0699	4.6753	63.2685	-57.2341	-35.5168	98.9529	-9.6842	25.5941	-1.8951	62.0281	-41.7954	-22.0431	
12.2170	-4.6919	1.4687	-85.0582	0.0000	1.2500	-0.0000	47.1007	0.3295	-4.8926	70.8161	-22.7585	1.1831	0.0000	67.7333	7.5999	-10.5077	69.3770	-3.8299	9.3429	0.0000	-23.5879	0.7412	-1.9780	88.9433	-10.7483	21.2937	4.5882	63.5280	-57.2338	-35.4471	98.8882	-9.7525	25.4371	-1.9090	61.7924	-41.9470	-22.1523	
12.2330	-4.7002	1.0232	-85.5482	0.0000	1.2500	-0.0000	49.0108	0.6562	-4.9390	74.3749	-21.8124	0.9924	-0.0000	65.0993	7.0265	-10.9037	65.2916	-4.5749	9.7506	-0.0000	-23.5719	0.9877	-1.7825	89.1239	-10.6729	21.5197	4.4805	63.7999	-57.2411	-35.3912	98.7907	-9.8471	25.2793	-1.9158	61.5117	-42.0899	-22.2823	
12.2500	-4.7179	0.6031	-86.0333	0.0000	1.2500	-0.0000	50.9591	1.0013	-5.0511	77.8053	-20.6087	0.8939	0.0000	62.3384	6.4154	-11.2881	61.1464	-5.4745	10.1192	-0.0000	-23.5490	1.2174	-1.5881	89.2803	-10.5746	21.6828	4.3788	64.1194	-57.2531	-35.3458	98.6435	-9.9466	25.1416	-1.9106	61.2107	-42.2232	-22.4222	
12.2660	-4.7523	0.2182	-86.5153	0.0000	1.2500	-0.0000	52.9160	1.3824	-5.2679	81.1091	-18.9658	0.9317	-0.0000	59.4426	5.7433	-11.6330	56.9352	-6.4994	10.4278	-0.0000	-23.5144	1.4228	-1.3973	89.4105	-10.4356	21.7251	4.2804	64.5394	-57.2703	-35.3104	98.4200	-10.0490	25.0409	-1.8889	60.8795	-42.3480	-22.5773	
12.2830	-4.7967	-0.1414	-86.9929	0.0000	1.2500	-0.0000	54.9109	1.7754	-5.5518	84.2867	-17.0616	1.0919	0.0000	56.4178	5.0366	-11.9804	52.6787	-7.6796	10.6954	-0.0000	-23.4722	1.6118	-1.2075	89.5165	-10.2750	21.7042	4.1880	65.0069	-57.2923	-35.2854	98.1468	-10.1551	24.9605	-1.8545	60.5284	-42.4632	-22.7423	
12.3000	-4.8327	-0.4887	-87.4159	0.0000	1.2500	-0.0000	56.9868	2.1536	-5.7488	87.2810	-15.3618	1.2961	-0.0000	53.3760	4.3590	-12.3394	48.5436	-8.9700	10.9736	-0.0000	-23.4353	1.7982	-1.0269	89.6062	-10.1417	21.7292	4.1352	65.3984	-57.3152	-35.2681	97.8877	-10.2490	24.8721	-1.8146	60.2132	-42.5639	-22.8893	
12.3160	-4.8604	-0.8351	-87.7691	0.0000	1.2500	-0.0000	59.1680	2.5151	-5.8027	90.1192	-13.8952	1.4903	0.0000	50.2844	3.7245	-12.7473	44.4760	-10.3889	11.2889	0.0000	-23.4043	1.9902	-0.8545	89.6893	-10.0605	21.8584	4.1484	65.6559	-57.3413	-35.2581	97.6672	-10.3197	24.7686	-1.7758	59.9487	-42.6528	-23.0131	
12.3330	-4.8807	-1.1689	-88.0676	0.0000	1.2500	-0.0000	61.4323	2.8690	-5.7667	92.7735	-12.6389	1.7021	-0.0000	47.1734	3.1170	-13.1560	40.5251	-11.9186	11.6305	0.0000	-23.3780	2.1795	-0.6913	89.7568	-10.0069	22.0340	4.2006	65.8374	-57.3684	-35.2558	97.4613	-10.3791	24.6575	-1.7316	59.7201	-42.7271	-23.1187	
12.3500	-4.8773	-1.4683	-88.3067	0.0000	1.2500	-0.0000	63.7538	3.2117	-5.6478	95.1034	-11.9840	1.9589	-0.0000	44.2500	2.5393	-13.4277	37.0143	-13.4609	11.9900	0.0000	-23.3664	2.3546	-0.5480	89.7888	-9.9553	22.1906	4.2454	65.9928	-57.3855	-35.2594	97.2616	-10.4462	24.5319	-1.6703	59.5385	-42.7739	-23.1944	
12.3670	-4.8308	-1.7271	-88.4847	0.0000	1.2500	-0.0000	66.1764	3.5474	-5.3779	97.0916	-12.3056	2.3048	-0.0000	41.5263	1.9753	-13.4301	33.9895	-15.0706	12.4103	-0.0000	-23.3746	2.5149	-0.4287	89.7572	-9.9020	22.3140	4.2682	66.1373	-57.3864	-35.2694	97.0553	-10.5323	24.3644	-1.5794	59.4268	-42.7816	-23.2303	
